<svg width="51" height="40" viewBox="0 0 51 40" fill="none" xmlns="http://www.w3.org/2000/svg">
<path d="M2 19C2 19 38.1708 18.9998 43.338 19C51.9501 16.8853 50.2276 6 41.6156 6C36.4483 6 36.4485 11.5715 36.4485 11.5715" stroke="black" stroke-width="3" stroke-linecap="round"/>
<path d="M2 25C2 25 28.6019 24.9999 33.2593 25C40.1255 25.0002 39.4691 38 31.7069 38C27.0494 38 27.0495 32.4285 27.0495 32.4285" stroke="black" stroke-width="3" stroke-linecap="round"/>
<path d="M2 13C2 13 17.5728 13 22.2446 12.9999C29.1321 12.9998 28.4737 2 20.6874 2C16.0155 2 16.0156 6.71436 16.0156 6.71436" stroke="black" stroke-width="3" stroke-linecap="round"/>
</svg>
