<svg width="24" height="19" viewBox="0 0 24 19" fill="none" xmlns="http://www.w3.org/2000/svg">
<path d="M1 9C1 9 17.931 8.99992 20.3497 9C24.3809 8.02397 23.5746 3 19.5435 3C17.1248 3 17.1248 5.57148 17.1248 5.57148" stroke="black" stroke-width="2" stroke-linecap="round"/>
<path d="M1 12C1 12 13.562 12 15.7613 12C19.0037 12.0001 18.6938 18 15.0282 18C12.8289 18 12.8289 15.4285 12.8289 15.4285" stroke="black" stroke-width="2" stroke-linecap="round"/>
<path d="M1 5.99998C1 5.99998 8.47496 6.00001 10.7174 5.99997C14.0234 5.99991 13.7074 1 9.96993 1C7.72745 1 7.7275 3.14289 7.7275 3.14289" stroke="black" stroke-width="2" stroke-linecap="round"/>
</svg>
