<svg width="27" height="25" viewBox="0 0 27 25" fill="none" xmlns="http://www.w3.org/2000/svg">
<ellipse cx="17.0345" cy="10.6328" rx="4.52228" ry="4.55696" transform="rotate(-5 17.0345 10.6328)" fill="black"/>
<path d="M16.26 1.78052L16.4586 4.05033" stroke="black" stroke-width="2" stroke-linecap="round"/>
<path d="M22.6282 3.96796L21.1409 5.68217" stroke="black" stroke-width="2" stroke-linecap="round"/>
<path d="M25.9667 9.97705L23.7111 10.1347" stroke="black" stroke-width="2" stroke-linecap="round"/>
<path d="M23.874 16.499L22.1818 14.9855" stroke="black" stroke-width="2" stroke-linecap="round"/>
<path d="M17.8288 19.712L17.6302 17.4422" stroke="black" stroke-width="2" stroke-linecap="round"/>
<path d="M11.3045 17.4753L12.8084 15.7759" stroke="black" stroke-width="2" stroke-linecap="round"/>
<path d="M8.02432 11.4211L10.2778 11.2356" stroke="black" stroke-width="2" stroke-linecap="round"/>
<path d="M10.3073 4.90594L11.9972 6.42213" stroke="black" stroke-width="2" stroke-linecap="round"/>
<circle cx="5.5" cy="17.2501" r="5.5" fill="black"/>
<path d="M21.5083 18.1673C21.2112 20.7583 19.2576 22.9033 16.6304 22.9806C-9.5 23.7501 12.4637 19.7551 12.7608 17.164C13.058 14.573 15.2571 12.6971 17.6726 12.9742C20.0882 13.2512 21.8055 15.5763 21.5083 18.1673Z" fill="black"/>
<circle cx="10.5" cy="13.2501" r="5.5" fill="black"/>
</svg>
