<svg width="21" height="42" viewBox="0 0 21 42" fill="none" xmlns="http://www.w3.org/2000/svg">
<path d="M19.5 29.6907C19.5 32.9968 18.8473 35.7065 17.4918 37.5551C16.1953 39.3231 14.112 40.5 10.7318 40.5C7.38509 40.5 5.16586 39.2466 3.73443 37.3203C2.26076 35.3371 1.50657 32.4787 1.50004 29.121C1.71846 25.4839 2.14432 23.4198 2.92845 21.2789C3.44089 19.8797 4.09024 18.4782 4.95862 16.6039C5.49694 15.442 6.11943 14.0984 6.84567 12.461C8.79095 8.07532 9.96947 5.30567 10.7007 3.55634C11.3964 5.30719 12.5156 8.07159 14.361 12.4369C15.0513 14.0697 15.6726 15.4556 16.2247 16.6871C18.4 21.539 19.5 23.9925 19.5 29.6907ZM10.7318 1.5C10.7488 1.5 10.7525 1.5009 10.7451 1.50139C10.713 1.50225 10.7056 1.5 10.7318 1.5Z" stroke="black" stroke-width="3"/>
</svg>
